HIERARCHY
ROOT Root
{
  OFFSET 0.0 0.0 0.0
  CHANNELS 6 Xposition Yposition Zposition Zrotation Yrotation Xrotation
  JOINT Hips
  {
    OFFSET 0.0 100.0 0.0
    CHANNELS 6 Xposition Yposition Zposition Zrotation Yrotation Xrotation
    JOINT Spine1
    {
      OFFSET 5.003913 -0.037094 -0.013727
      CHANNELS 3 Zrotation Yrotation Xrotation
      JOINT Spine2
      {
        OFFSET 7.125363 -1e-06 0.0
        CHANNELS 3 Zrotation Yrotation Xrotation
        JOINT Chest
        {
          OFFSET 7.594027 1e-06 0.0
          CHANNELS 3 Zrotation Yrotation Xrotation
          JOINT Neck1
          {
            OFFSET 26.313086 -0.460272 -0.181672
            CHANNELS 3 Zrotation Yrotation Xrotation
            JOINT Neck2
            {
              OFFSET 8.045911 0.0 0.0
              CHANNELS 3 Zrotation Yrotation Xrotation
              JOINT Head
              {
                OFFSET 6.432774 0.0 0.0
                CHANNELS 3 Zrotation Yrotation Xrotation
                JOINT HeadEnd
                {
                  OFFSET 16.169773 0.06451 0.00362
                  CHANNELS 3 Zrotation Yrotation Xrotation
                }
                JOINT Jaw
                {
                  OFFSET 0.108741 3.12938 0.002639
                  CHANNELS 3 Zrotation Yrotation Xrotation
                }
                JOINT LeftEye
                {
                  OFFSET 4.45173 8.166359 3.206392
                  CHANNELS 3 Zrotation Yrotation Xrotation
                }
                JOINT RightEye
                {
                  OFFSET 4.436895 8.135758 -3.222429
                  CHANNELS 3 Zrotation Yrotation Xrotation
                }
              }
            }
          }
          JOINT LeftShoulder
          {
            OFFSET 23.218927 5.195579 1.621656
            CHANNELS 3 Zrotation Yrotation Xrotation
            JOINT LeftArm
            {
              OFFSET 15.902118 2e-06 -2e-06
              CHANNELS 3 Zrotation Yrotation Xrotation
              JOINT LeftForeArm
              {
                OFFSET 28.739307 0.0 -1e-06
                CHANNELS 3 Zrotation Yrotation Xrotation
                JOINT LeftHand
                {
                  OFFSET 27.093981 -4e-06 0.0
                  CHANNELS 3 Zrotation Yrotation Xrotation
                  JOINT LeftHandThumb1
                  {
                    OFFSET 2.276781 3.380274 0.83384
                    CHANNELS 3 Zrotation Yrotation Xrotation
                    JOINT LeftHandThumb2
                    {
                      OFFSET 4.705309 -1e-06 -1e-06
                      CHANNELS 3 Zrotation Yrotation Xrotation
                      JOINT LeftHandThumb3
                      {
                        OFFSET 2.798515 0.0 3e-06
                        CHANNELS 3 Zrotation Yrotation Xrotation
                        JOINT LeftHandThumbEnd
                        {
                          OFFSET 3.180793 4e-06 -4e-06
                          CHANNELS 3 Zrotation Yrotation Xrotation
                        }
                      }
                    }
                  }
                  JOINT LeftHandIndex1
                  {
                    OFFSET 3.247786 2.352677 0.137192
                    CHANNELS 3 Zrotation Yrotation Xrotation
                    JOINT LeftHandIndex2
                    {
                      OFFSET 6.367095 1e-06 0.0
                      CHANNELS 3 Zrotation Yrotation Xrotation
                      JOINT LeftHandIndex3
                      {
                        OFFSET 3.662364 0.0 0.0
                        CHANNELS 3 Zrotation Yrotation Xrotation
                        JOINT LeftHandIndex4
                        {
                          OFFSET 2.329242 4e-06 -4e-06
                          CHANNELS 3 Zrotation Yrotation Xrotation
                          JOINT LeftHandIndexEnd
                          {
                            OFFSET 2.767823 1e-06 0.0
                            CHANNELS 3 Zrotation Yrotation Xrotation
                          }
                        }
                      }
                    }
                  }
                  JOINT LeftHandMiddle1
                  {
                    OFFSET 3.163612 0.945023 -0.406112
                    CHANNELS 3 Zrotation Yrotation Xrotation
                    JOINT LeftHandMiddle2
                    {
                      OFFSET 6.276789 3e-06 0.0
                      CHANNELS 3 Zrotation Yrotation Xrotation
                      JOINT LeftHandMiddle3
                      {
                        OFFSET 4.35652 -1e-06 4e-06
                        CHANNELS 3 Zrotation Yrotation Xrotation
                        JOINT LeftHandMiddle4
                        {
                          OFFSET 2.996877 0.0 8e-06
                          CHANNELS 3 Zrotation Yrotation Xrotation
                          JOINT LeftHandMiddleEnd
                          {
                            OFFSET 2.323256 3e-06 -4e-06
                            CHANNELS 3 Zrotation Yrotation Xrotation
                          }
                        }
                      }
                    }
                  }
                  JOINT LeftHandRing1
                  {
                    OFFSET 2.882606 -0.309162 0.107445
                    CHANNELS 3 Zrotation Yrotation Xrotation
                    JOINT LeftHandRing2
                    {
                      OFFSET 6.033198 0.0 4e-06
                      CHANNELS 3 Zrotation Yrotation Xrotation
                      JOINT LeftHandRing3
                      {
                        OFFSET 4.350578 3e-06 0.0
                        CHANNELS 3 Zrotation Yrotation Xrotation
                        JOINT LeftHandRing4
                        {
                          OFFSET 2.651321 2e-06 -7e-06
                          CHANNELS 3 Zrotation Yrotation Xrotation
                          JOINT LeftHandRingEnd
                          {
                            OFFSET 1.937663 1e-06 -4e-06
                            CHANNELS 3 Zrotation Yrotation Xrotation
                          }
                        }
                      }
                    }
                  }
                  JOINT LeftHandPinky1
                  {
                    OFFSET 2.865315 -1.525436 0.575687
                    CHANNELS 3 Zrotation Yrotation Xrotation
                    JOINT LeftHandPinky2
                    {
                      OFFSET 5.54936 1e-06 -8e-06
                      CHANNELS 3 Zrotation Yrotation Xrotation
                      JOINT LeftHandPinky3
                      {
                        OFFSET 3.070974 0.0 -4e-06
                        CHANNELS 3 Zrotation Yrotation Xrotation
                        JOINT LeftHandPinky4
                        {
                          OFFSET 1.549672 1e-06 0.0
                          CHANNELS 3 Zrotation Yrotation Xrotation
                          JOINT LeftHandPinkyEnd
                          {
                            OFFSET 1.952123 0.0 0.0
                            CHANNELS 3 Zrotation Yrotation Xrotation
                          }
                        }
                      }
                    }
                  }
                }
              }
            }
          }
          JOINT RightShoulder
          {
            OFFSET 23.161716 5.296122 -1.380114
            CHANNELS 3 Zrotation Yrotation Xrotation
            JOINT RightArm
            {
              OFFSET -16.027195 -2e-06 1.1e-05
              CHANNELS 3 Zrotation Yrotation Xrotation
              JOINT RightForeArm
              {
                OFFSET -28.736639 4e-06 2e-06
                CHANNELS 3 Zrotation Yrotation Xrotation
                JOINT RightHand
                {
                  OFFSET -27.133619 6e-06 0.0
                  CHANNELS 3 Zrotation Yrotation Xrotation
                  JOINT RightHandThumb1
                  {
                    OFFSET -2.274328 -3.351035 -0.83067
                    CHANNELS 3 Zrotation Yrotation Xrotation
                    JOINT RightHandThumb2
                    {
                      OFFSET -4.703594 -3e-06 2e-06
                      CHANNELS 3 Zrotation Yrotation Xrotation
                      JOINT RightHandThumb3
                      {
                        OFFSET -2.794935 -4e-06 -3e-06
                        CHANNELS 3 Zrotation Yrotation Xrotation
                        JOINT RightHandThumbEnd
                        {
                          OFFSET -3.183852 4e-06 1e-06
                          CHANNELS 3 Zrotation Yrotation Xrotation
                        }
                      }
                    }
                  }
                  JOINT RightHandIndex1
                  {
                    OFFSET -3.253496 -2.33755 -0.127667
                    CHANNELS 3 Zrotation Yrotation Xrotation
                    JOINT RightHandIndex2
                    {
                      OFFSET -6.344434 0.0 0.0
                      CHANNELS 3 Zrotation Yrotation Xrotation
                      JOINT RightHandIndex3
                      {
                        OFFSET -3.654871 0.0 -8e-06
                        CHANNELS 3 Zrotation Yrotation Xrotation
                        JOINT RightHandIndex4
                        {
                          OFFSET -2.327586 -1e-06 0.0
                          CHANNELS 3 Zrotation Yrotation Xrotation
                          JOINT RightHandIndexEnd
                          {
                            OFFSET -2.770001 3e-06 8e-06
                            CHANNELS 3 Zrotation Yrotation Xrotation
                          }
                        }
                      }
                    }
                  }
                  JOINT RightHandMiddle1
                  {
                    OFFSET -3.168223 -0.944764 0.411762
                    CHANNELS 3 Zrotation Yrotation Xrotation
                    JOINT RightHandMiddle2
                    {
                      OFFSET -6.266691 -1e-06 -4e-06
                      CHANNELS 3 Zrotation Yrotation Xrotation
                      JOINT RightHandMiddle3
                      {
                        OFFSET -4.348901 0.0 0.0
                        CHANNELS 3 Zrotation Yrotation Xrotation
                        JOINT RightHandMiddle4
                        {
                          OFFSET -3.00024 2e-06 -4e-06
                          CHANNELS 3 Zrotation Yrotation Xrotation
                          JOINT RightHandMiddleEnd
                          {
                            OFFSET -2.321477 -4e-06 -4e-06
                            CHANNELS 3 Zrotation Yrotation Xrotation
                          }
                        }
                      }
                    }
                  }
                  JOINT RightHandRing1
                  {
                    OFFSET -2.885654 0.293261 -0.119232
                    CHANNELS 3 Zrotation Yrotation Xrotation
                    JOINT RightHandRing2
                    {
                      OFFSET -6.032835 -1e-06 -4e-06
                      CHANNELS 3 Zrotation Yrotation Xrotation
                      JOINT RightHandRing3
                      {
                        OFFSET -4.33881 0.0 -4e-06
                        CHANNELS 3 Zrotation Yrotation Xrotation
                        JOINT RightHandRing4
                        {
                          OFFSET -2.654903 -4e-06 -4e-06
                          CHANNELS 3 Zrotation Yrotation Xrotation
                          JOINT RightHandRingEnd
                          {
                            OFFSET -1.935122 0.0 4e-06
                            CHANNELS 3 Zrotation Yrotation Xrotation
                          }
                        }
                      }
                    }
                  }
                  JOINT RightHandPinky1
                  {
                    OFFSET -2.866241 1.503904 -0.60527
                    CHANNELS 3 Zrotation Yrotation Xrotation
                    JOINT RightHandPinky2
                    {
                      OFFSET -5.553177 -2e-06 0.0
                      CHANNELS 3 Zrotation Yrotation Xrotation
                      JOINT RightHandPinky3
                      {
                        OFFSET -3.062664 -1e-06 -4e-06
                        CHANNELS 3 Zrotation Yrotation Xrotation
                        JOINT RightHandPinky4
                        {
                          OFFSET -1.546529 2e-06 4e-06
                          CHANNELS 3 Zrotation Yrotation Xrotation
                          JOINT RightHandPinkyEnd
                          {
                            OFFSET -1.952341 0.0 -4e-06
                            CHANNELS 3 Zrotation Yrotation Xrotation
                          }
                        }
                      }
                    }
                  }
                }
              }
            }
          }
        }
      }
    }
    JOINT LeftLeg
    {
      OFFSET -8.443107 2.567604 10.043214
      CHANNELS 3 Zrotation Yrotation Xrotation
      JOINT LeftShin
      {
        OFFSET 43.229198 1e-06 -1e-06
        CHANNELS 3 Zrotation Yrotation Xrotation
        JOINT LeftFoot
        {
          OFFSET 42.298611 1e-06 1e-06
          CHANNELS 3 Zrotation Yrotation Xrotation
          JOINT LeftToeBase
          {
            OFFSET 14.165858 1e-06 0.0
            CHANNELS 3 Zrotation Yrotation Xrotation
            JOINT LeftToeEnd
            {
              OFFSET 6.7141 -0.234461 0.0
              CHANNELS 3 Zrotation Yrotation Xrotation
            }
          }
        }
      }
    }
    JOINT RightLeg
    {
      OFFSET -8.303923 2.592729 -10.047278
      CHANNELS 3 Zrotation Yrotation Xrotation
      JOINT RightShin
      {
        OFFSET -43.369682 0.0 1e-06
        CHANNELS 3 Zrotation Yrotation Xrotation
        JOINT RightFoot
        {
          OFFSET -42.260784 4e-06 2e-06
          CHANNELS 3 Zrotation Yrotation Xrotation
          JOINT RightToeBase
          {
            OFFSET -14.222245 -2e-06 -1e-06
            CHANNELS 3 Zrotation Yrotation Xrotation
            JOINT RightToeEnd
            {
              OFFSET -6.660062 0.232574 -2e-06
              CHANNELS 3 Zrotation Yrotation Xrotation
            }
          }
        }
      }
    }
  }
}
MOTION
Frames: 4
Frame Time: 0.03333333333333333
0.0 0.0 0.0 0.0 -0.0 0.0 0.324374 99.838722 0.291642 89.393372 -0.050287 90.092873 0.079722 0.426712 -0.099339 -10.193628 -0.463982 -0.196729 15.999583 -0.980896 -2.577041 17.242296 4.035301 2.447606 -2.460421 -0.664417 -4.737531 -32.459503 -2.733668 -4.674326 0.000212 0.000698 -7.5e-05 -0.00611 0.009207 0.009359 0.117669 0.040739 -0.011407 0.082611 -0.024395 0.034081 -135.568512 -73.990227 149.580978 43.255669 -50.442486 14.185185 43.167267 -0.805757 -0.159596 -0.138068 -5.403464 -14.893573 17.627359 -26.396095 52.459713 -19.420919 -14.396642 29.375681 0.000533 -8.766818 0.011239 16.521482 -18.048019 6.247921 -0.616948 -1.798371 -3.888622 -4.805343 -11.04989 -2.950336 -0.021032 -20.997276 0.027856 -5.054076 -25.044966 -3.998467 -0.008876 0.00688 0.00128 -10.639344 -5.687282 -3.562354 10.575626 -17.92182 -3.117132 -0.008559 -13.80429 0.017232 -0.517015 -31.17214 -4.032257 -11.204968 -59.339931 7.360744 -13.979093 -7.136289 -2.874868 13.761004 -8.411758 -3.206137 0.333838 -34.219799 0.822008 -0.993286 -17.745834 2.629432 0.00487 -0.002866 0.001952 -17.35733 -20.099848 -4.19618 21.764004 -1.633946 3.864496 0.012227 -6.358872 0.01562 -1.722973 -22.60643 -6.195522 -0.000646 0.005044 -0.001844 41.633972 -72.853294 150.314713 26.117157 -55.063545 11.451882 50.191357 -0.170635 0.385847 1.318379 -12.953423 -2.906953 22.109634 -20.43611 49.965187 -16.689611 -16.770334 28.487091 -0.008154 -12.677145 0.016944 16.427465 -17.313259 2.56269 -0.094122 -1.511929 -4.284163 -5.034929 -5.614745 -2.955336 0.001344 -11.029484 0.008236 -6.104918 -15.903104 -3.812566 0.003138 -0.01138 0.00226 -10.266055 -5.668836 -4.34431 11.038201 -11.310669 -2.369026 -1.368576 -14.243708 -6.314493 -0.641834 -26.910191 -3.785789 -4.090064 -50.01046 -3.444702 -13.68068 -7.35409 -3.713752 18.148369 -14.080129 -3.258909 -0.005628 -18.799267 0.006508 -0.435267 -8.466498 2.564207 0.001588 0.001527 -0.001865 -15.866901 -20.085514 -5.46091 30.385677 -7.189531 1.701055 -0.005116 -8.155706 -0.017395 -1.876559 -22.850246 -6.133973 0.002194 0.005608 -0.002513 175.847519 -7.005349 -11.952109 16.026615 -0.122158 0.353302 -78.778358 -8.215662 -12.596536 -5.090388 1.631531 2.166051 -0.997532 -0.007474 -0.001692 3.263456 -6.683297 -18.835293 5.911192 0.02382 0.371159 -75.759285 2.295681 -11.064435 -5.88443 0.554563 1.646339 -1.001155 0.003694 0.000279 
0.0 0.0 0.0 0.0 -0.0 0.0 0.246332 99.902672 0.109877 89.417717 -0.073466 89.779518 0.173286 0.391571 -0.158161 -10.166656 -0.433379 -0.258138 15.977746 -0.959322 -2.629346 17.674368 4.305267 2.507569 -2.480261 -0.632912 -5.041852 -32.269264 -2.848598 -4.875453 -0.001895 -4.3e-05 -0.002599 -0.007456 0.016128 0.009582 0.142625 0.044923 0.006797 0.094147 -0.014204 0.02238 -136.411697 -74.729637 149.791229 46.526272 -49.544422 11.818502 46.239025 -1.096888 -0.233734 0.245966 -5.469282 -16.993214 17.683256 -26.377293 52.405602 -19.5131 -14.446808 29.419971 -0.009511 -8.776974 -0.007862 16.647221 -17.992125 6.223075 -0.592936 -1.807391 -3.860697 -4.804767 -11.038434 -2.936519 0.023675 -20.991474 -0.010395 -5.004712 -25.065851 -4.010109 0.00446 0.005122 0.005703 -10.637835 -5.679011 -3.541706 10.59306 -17.929974 -3.107373 0.023373 -13.838262 0.019225 -0.476461 -31.193617 -4.007669 -11.416124 -59.402073 7.623621 -14.004553 -7.136056 -2.859726 13.806334 -8.421625 -3.221791 0.377133 -34.275677 0.800351 -0.961897 -17.744877 2.661017 0.002555 -0.00302 -0.011915 -17.34362 -20.09037 -4.178061 21.786461 -1.658034 3.859156 0.007351 -6.351689 0.00767 -1.680889 -22.598017 -6.175776 -0.002293 -0.005114 -0.009222 41.52113 -73.156517 149.805847 26.817764 -53.742069 8.431042 54.287891 -0.340037 0.358887 2.407385 -12.676189 -6.739586 22.173368 -20.386002 49.857426 -16.686211 -16.732378 28.418184 0.003831 -12.676549 0.004192 16.610369 -17.308592 2.575423 -0.089794 -1.500749 -4.272911 -5.03378 -5.613235 -2.942786 -0.008985 -11.01836 0.013207 -6.118419 -15.878954 -3.822562 -0.003349 0.007166 -0.017547 -10.269149 -5.661475 -4.343263 11.018479 -11.292295 -2.35304 -1.397293 -14.235312 -6.299131 -0.638481 -26.8915 -3.772188 -4.0983 -50.245152 -3.412438 -13.674915 -7.347117 -3.711423 18.119928 -14.034695 -3.238757 0.002793 -18.778173 0.017361 -0.434464 -8.435622 2.52756 0.000219 -0.0 0.010182 -15.903065 -20.068443 -5.458017 30.402184 -7.185135 1.728447 0.000306 -8.171755 0.003208 -1.883803 -22.904379 -6.137252 -0.003702 0.007109 -0.009733 176.087219 -6.992383 -12.185937 15.381675 -0.093311 0.365614 -78.253113 -8.322083 -12.56702 -5.204164 1.675361 2.168039 -1.003755 0.004007 -0.000284 3.008337 -6.765724 -18.837021 6.080606 0.009873 0.3105 -75.621513 2.622787 -10.988104 -6.159154 0.537216 1.626858 -0.991948 -0.005123 -0.001702 
0.0 0.0 0.0 0.0 -0.0 0.0 0.250981 99.937935 0.032793 89.477997 -0.03565 89.485359 0.300532 0.328043 -0.190662 -10.17362 -0.449016 -0.420681 16.036215 -0.885875 -2.660943 18.281126 4.615487 2.57988 -2.493 -0.655167 -5.246653 -31.986694 -2.928832 -5.136886 0.0 -0.0 0.0 0.002081 0.018517 0.001861 0.151128 0.048542 0.003619 0.089448 -0.012224 0.004928 -137.741745 -75.827118 150.451157 50.696415 -48.439827 8.68845 49.247448 -1.313712 -0.213362 0.833946 -5.280297 -19.276644 17.638741 -26.282276 52.432079 -19.476559 -14.392729 29.418179 0.008406 -8.768929 0.011832 16.797958 -17.961258 6.120079 -0.601641 -1.795622 -3.887751 -4.819232 -11.062415 -2.956311 0.011278 -21.000788 -0.010698 -4.987731 -25.060299 -4.067742 -0.008104 -0.001846 0.00196 -10.62962 -5.691104 -3.569828 10.563148 -17.915241 -3.127752 0.009147 -13.838084 -0.010789 -0.523148 -31.174463 -4.021762 -11.226536 -59.33503 7.307451 -13.982389 -7.148735 -2.876508 13.778411 -8.407801 -3.22939 0.384449 -34.241234 0.7283 -0.954798 -17.737017 2.636271 0.008582 0.000695 -0.000301 -17.338249 -20.108017 -4.226348 21.760439 -1.637012 3.861921 0.005934 -6.350452 0.005882 -1.684084 -22.59108 -6.219915 -0.004568 -0.011017 0.004232 41.349937 -73.692497 149.674057 28.418459 -52.08408 3.943912 58.231712 -0.421269 0.265472 4.015312 -11.752064 -11.291489 22.20672 -20.37985 49.943329 -16.715425 -16.745502 28.457769 -0.00506 -12.681595 0.011653 16.526592 -17.391357 2.612027 -0.118029 -1.517372 -4.282891 -5.035185 -5.616624 -2.951474 -0.00735 -11.006259 -0.013244 -6.089739 -15.900182 -3.841405 0.0 -0.0 0.0 -10.298207 -5.676645 -4.350319 11.026124 -11.299452 -2.366417 -1.380988 -14.234369 -6.325991 -0.597035 -26.919168 -3.844243 -4.159152 -50.321995 -3.326948 -13.740274 -7.368267 -3.727138 18.155775 -14.059397 -3.245137 0.008115 -18.758883 0.011271 -0.419314 -8.443934 2.559857 -0.003471 -0.005724 -0.00947 -15.931427 -20.093796 -5.495757 30.424471 -7.210431 1.748269 0.001441 -8.148516 0.005438 -1.870229 -22.829062 -6.153092 1.9e-05 0.000417 -0.001175 176.380753 -6.913777 -12.470573 14.911904 -0.05355 0.365284 -78.129082 -8.420153 -12.58252 -5.345675 1.70133 2.170503 -1.00109 0.004121 -0.001126 2.817116 -6.895875 -18.799412 6.285347 0.017145 0.257063 -75.549606 3.026436 -10.833361 -6.283509 0.535494 1.614351 -1.004344 0.010283 0.000723 
0.0 0.0 0.0 0.0 -0.0 0.0 0.259798 99.937073 -0.135771 89.530502 0.036675 89.086906 0.440261 0.290447 -0.187311 -10.16651 -0.474008 -0.586094 16.052784 -0.791519 -2.763533 18.933575 4.940989 2.625059 -2.531968 -0.687149 -5.335764 -31.434706 -2.978385 -5.354155 -0.002222 -0.000664 -0.000112 0.003662 0.020056 0.005192 0.125098 0.048422 0.017796 0.056426 -0.010326 -0.002228 -138.932983 -76.764641 150.925934 55.455128 -47.276539 5.046265 51.999508 -1.499961 -0.137766 1.825384 -4.639918 -22.370043 17.601336 -26.344982 52.464363 -19.509695 -14.408003 29.446697 -0.006892 -8.8002 0.00346 16.854589 -17.977245 6.16222 -0.585846 -1.812331 -3.878183 -4.802475 -11.051398 -2.937803 0.03149 -20.999727 -0.017188 -5.032838 -25.051935 -4.028048 0.010505 0.010289 0.001187 -10.614888 -5.704045 -3.528384 10.605094 -17.913458 -3.150534 0.015377 -13.826286 -0.014466 -0.488356 -31.176624 -4.035874 -11.218052 -59.055702 7.36248 -13.963784 -7.163513 -2.851349 13.795198 -8.413117 -3.239917 0.368391 -34.25824 0.752689 -0.964673 -17.758625 2.615165 0.000724 -0.001974 0.004544 -17.307802 -20.110527 -4.163763 21.757872 -1.639305 3.81897 0.014153 -6.337905 0.001579 -1.679824 -22.609287 -6.213938 -0.002319 0.000927 0.001577 40.960094 -74.125778 149.678482 30.946239 -49.906948 -1.969208 60.807789 -0.661951 0.06824 5.710095 -10.171385 -15.846393 22.162329 -20.449369 49.969986 -16.688637 -16.744408 28.486025 -0.002838 -12.687521 0.001771 16.350451 -17.487629 2.737726 -0.100959 -1.520391 -4.278818 -5.027198 -5.615159 -2.954572 -0.020045 -11.024618 0.003539 -6.122296 -15.911386 -3.835121 0.0007 0.005546 -0.006127 -10.286817 -5.686125 -4.342075 11.017162 -11.299116 -2.372381 -1.375748 -14.237454 -6.300638 -0.653285 -26.940929 -3.822473 -4.369606 -50.126198 -3.224619 -13.718347 -7.369604 -3.709122 18.140656 -14.052527 -3.247316 -0.002393 -18.809952 0.018923 -0.439592 -8.479198 2.552853 0.001517 0.003919 0.010037 -15.925241 -20.105387 -5.468406 30.42248 -7.20205 1.735176 -0.003326 -8.157491 -0.004065 -1.856607 -22.874102 -6.162809 0.001876 -0.016963 0.010253 176.4758 -6.882715 -12.808465 14.846318 -0.03717 0.380779 -77.924858 -8.536062 -12.520166 -5.355835 1.705381 2.176286 -0.997471 0.000659 -0.000729 2.583737 -7.080634 -18.701134 6.592773 0.027222 0.205575 -75.560295 3.451225 -10.670634 -6.291101 0.572291 1.613205 -0.996988 0.001187 -0.000301 
